<svg width="5" height="17" viewBox="0 0 5 17" fill="none" xmlns="http://www.w3.org/2000/svg">
<path d="M4.875 7.70834V14.8333C4.875 15.2533 4.70818 15.656 4.41125 15.9529C4.11432 16.2499 3.71159 16.4167 3.29167 16.4167H1.70833C1.28841 16.4167 0.885681 16.2499 0.588748 15.9529C0.291815 15.656 0.125 15.2533 0.125 14.8333V7.70834C0.12587 7.49885 0.168302 7.29162 0.249838 7.09865C0.331374 6.90568 0.450394 6.73081 0.6 6.58417C1.7875 5.24625 1.70833 2.16667 1.70833 2.16667H0.916667V0.583336H4.08333V2.16667H3.29167C3.29167 2.16667 3.2125 5.24625 4.4 6.58417C4.54961 6.73081 4.66863 6.90568 4.75016 7.09865C4.8317 7.29162 4.87413 7.49885 4.875 7.70834V7.70834Z" fill="#686868"/>
</svg>
